<svg xmlns="http://www.w3.org/2000/svg" viewBox="0 0 48 44">
  <defs>
    <style>
      .cls-1 {
        fill: #fdeb37;
      }
    </style>
  </defs>
  <g id="email-logo-fixed-pos" transform="translate(-46 -785)">
    <g id="Group_11" data-name="Group 11" transform="translate(71.6 802.286)">
      <g id="Group_10" data-name="Group 10">
        <path id="Path_17" data-name="Path 17" class="cls-1" d="M265.6,198.285a3.2,3.2,0,0,0-6.4,0v1.571A3.175,3.175,0,0,0,262.4,203a3.216,3.216,0,0,0,1.834-.574,2.4,2.4,0,0,0,4.566-1v-3.143a6.4,6.4,0,0,0-12.8,0v2.357a6.351,6.351,0,0,0,6.4,6.286h4a2.382,2.382,0,0,0,2.4-2.357h-1.6a.794.794,0,0,1-.8.786h-4a4.763,4.763,0,0,1-4.8-4.714v-2.357a4.8,4.8,0,0,1,9.6,0v3.143a.8.8,0,0,1-1.6,0v-3.143Zm-1.6,1.571a1.6,1.6,0,0,1-3.2,0v-1.571a1.6,1.6,0,0,1,3.2,0Z" transform="translate(-256 -191.999)"/>
      </g>
    </g>
    <g id="Group_13" data-name="Group 13" transform="translate(69.135 827.064)">
      <g id="Group_12" data-name="Group 12">
        <path id="Path_18" data-name="Path 18" class="cls-1" d="M232.872,444.287c-.5.1-1.014.174-1.52.233l.184,1.56c.548-.063,1.1-.147,1.642-.251Z" transform="translate(-231.352 -444.287)"/>
      </g>
    </g>
    <g id="Group_15" data-name="Group 15" transform="translate(66.002 827.414)">
      <g id="Group_14" data-name="Group 14">
        <path id="Path_19" data-name="Path 19" class="cls-1" d="M201.614,447.847c-.511.019-1.03.02-1.538,0l-.059,1.571c.265.009.53.014.8.014q.433,0,.863-.016Z" transform="translate(-200.016 -447.847)"/>
      </g>
    </g>
    <g id="Group_17" data-name="Group 17" transform="translate(59.506 826.277)">
      <g id="Group_16" data-name="Group 16">
        <path id="Path_20" data-name="Path 20" class="cls-1" d="M135.6,436.279l-.54,1.479c.518.183,1.051.349,1.583.491l.422-1.516C136.578,436.6,136.085,436.449,135.6,436.279Z" transform="translate(-135.064 -436.279)"/>
      </g>
    </g>
    <g id="Group_19" data-name="Group 19" transform="translate(62.707 827.076)">
      <g id="Group_18" data-name="Group 18">
        <path id="Path_21" data-name="Path 21" class="cls-1" d="M167.374,444.407l-.3,1.543c.54.1,1.092.185,1.642.246l.18-1.561C168.386,444.578,167.874,444.5,167.374,444.407Z" transform="translate(-167.072 -444.407)"/>
      </g>
    </g>
    <g id="Group_21" data-name="Group 21" transform="translate(56.478 825.043)">
      <g id="Group_20" data-name="Group 20">
        <path id="Path_22" data-name="Path 22" class="cls-1" d="M105.549,423.711l-.765,1.379c.486.261.987.505,1.487.726l.656-1.433C106.464,424.178,106,423.952,105.549,423.711Z" transform="translate(-104.784 -423.711)"/>
      </g>
    </g>
    <g id="Group_23" data-name="Group 23" transform="translate(51.221 821.384)">
      <g id="Group_22" data-name="Group 22">
        <path id="Path_23" data-name="Path 23" class="cls-1" d="M53.362,386.455l-1.154,1.089c.386.394.787.775,1.2,1.132l1.066-1.172C54.091,387.173,53.719,386.82,53.362,386.455Z" transform="translate(-52.208 -386.455)"/>
      </g>
    </g>
    <g id="Group_63" data-name="Group 63" transform="translate(55.6 815.643)">
      <path id="Path_40" data-name="Path 40" class="cls-1" d="M48,105.57V104H.8a.793.793,0,0,0-.8.786v22a3.969,3.969,0,0,0,4,3.929H37.6a3.969,3.969,0,0,0,4-3.929V111.856h1.6v-1.571H41.6v-1.571h4v-1.571h-4V105.57Zm-10.472,0L20.8,114.114,4.072,105.57ZM40,126.785a2.382,2.382,0,0,1-2.4,2.357H4a2.382,2.382,0,0,1-2.4-2.357V106.079L20.431,115.7a.81.81,0,0,0,.738,0L40,106.079Z" transform="translate(-9.6 -125.999)"/>
      <path id="Path_39" data-name="Path 39" class="cls-1" d="M290.44,34.855l-.656,1.433c.463.2.926.431,1.378.672l.765-1.379C291.441,35.32,290.94,35.076,290.44,34.855Z" transform="translate(-270.406 -63.646)"/>
      <path id="Path_38" data-name="Path 38" class="cls-1" d="M53.354,71.439c-.39.344-.773.708-1.138,1.081l1.153,1.09c.34-.347.7-.684,1.056-1Z" transform="translate(-56.594 -96.637)"/>
      <path id="Path_37" data-name="Path 37" class="cls-1" d="M342.25,70.927,341.184,72.1c.378.331.75.684,1.106,1.049l1.154-1.089C343.059,71.666,342.658,71.285,342.25,70.927Z" transform="translate(-316.666 -96.175)"/>
      <path id="Path_36" data-name="Path 36" class="cls-1" d="M317.64,50.759l-.872,1.318c.43.274.851.567,1.255.871L319,51.7C318.56,51.373,318.1,51.055,317.64,50.759Z" transform="translate(-294.691 -77.988)"/>
      <path id="Path_35" data-name="Path 35" class="cls-1" d="M77.7,51.175c-.465.3-.92.618-1.354.946l.978,1.244c.4-.3.822-.6,1.252-.875Z" transform="translate(-78.31 -78.363)"/>
      <path id="Path_34" data-name="Path 34" class="cls-1" d="M230.9,17.375l-.179,1.562c.508.057,1.019.133,1.519.228l.3-1.544C232,17.519,231.449,17.436,230.9,17.375Z" transform="translate(-217.248 -47.883)"/>
      <path id="Path_33" data-name="Path 33" class="cls-1" d="M261.3,23.655l-.422,1.515c.491.132.984.285,1.465.455l.541-1.479C262.367,23.963,261.834,23.8,261.3,23.655Z" transform="translate(-244.392 -53.546)"/>
      <path id="Path_32" data-name="Path 32" class="cls-1" d="M105.6,35.175c-.5.226-1,.471-1.485.732l.772,1.377c.445-.241.907-.469,1.375-.677Z" transform="translate(-103.308 -63.935)"/>
      <path id="Path_31" data-name="Path 31" class="cls-1" d="M135.951,23.831c-.531.145-1.064.312-1.583.5l.546,1.477c.48-.171.973-.326,1.466-.46Z" transform="translate(-130.531 -53.705)"/>
      <path id="Path_30" data-name="Path 30" class="cls-1" d="M199.368,16.018l.064,1.57c.51-.02,1.03-.02,1.538,0l.059-1.571C200.479,16,199.921,16,199.368,16.018Z" transform="translate(-189.031 -46.644)"/>
      <path id="Path_29" data-name="Path 29" class="cls-1" d="M168.026,17.455c-.548.063-1.1.147-1.642.251l.306,1.542c.5-.1,1.014-.174,1.52-.233Z" transform="translate(-159.346 -47.955)"/>
      <path id="Path_28" data-name="Path 28" class="cls-1" d="M291.783,423.359c-.445.241-.907.469-1.375.677l.662,1.431c.5-.225,1-.471,1.485-.732Z" transform="translate(-270.967 -413.993)"/>
      <path id="Path_27" data-name="Path 27" class="cls-1" d="M342.752,386.447c-.34.347-.7.684-1.056,1l1.07,1.168c.39-.344.773-.708,1.138-1.081Z" transform="translate(-317.126 -380.707)"/>
      <path id="Path_26" data-name="Path 26" class="cls-1" d="M318.6,406.527c-.4.3-.822.6-1.252.875l.877,1.315c.465-.3.92-.618,1.354-.946Z" transform="translate(-295.217 -398.814)"/>
      <path id="Path_25" data-name="Path 25" class="cls-1" d="M262.986,436.063c-.48.171-.973.326-1.466.46l.428,1.514c.531-.145,1.064-.312,1.583-.5Z" transform="translate(-244.968 -425.45)"/>
      <path id="Path_24" data-name="Path 24" class="cls-1" d="M77.918,406.951l-.974,1.248c.437.328.893.645,1.357.941l.872-1.318C78.743,407.548,78.322,407.255,77.918,406.951Z" transform="translate(-78.85 -399.197)"/>
      <rect id="Rectangle_16" data-name="Rectangle 16" class="cls-1" width="1.6" height="1.571"/>
      <rect id="Rectangle_14" data-name="Rectangle 14" class="cls-1" width="1.6" height="1.571" transform="translate(-6.4)"/>
      <rect id="Rectangle_15" data-name="Rectangle 15" class="cls-1" width="1.6" height="1.571" transform="translate(-3.2)"/>
    </g>
  </g>
</svg>
