<svg xmlns="http://www.w3.org/2000/svg" viewBox="0 0 48 48">
  <defs>
    <style>
      .cls-1 {
        fill: #fdeb37;
      }
    </style>
  </defs>
  <g id="LinkedIn" transform="translate(-44 -877)">
    <path id="LinkedIn-2" data-name="LinkedIn" class="cls-1" d="M48,38.987V57.558H37.712V40.231c0-4.353-1.488-7.323-5.212-7.323a5.662,5.662,0,0,0-5.279,3.939,7.685,7.685,0,0,0-.341,2.625V57.558H16.589s.139-29.347,0-32.388h10.29v4.591c-.021.034-.048.071-.068.1h.068v-.1a10.158,10.158,0,0,1,9.274-5.352C42.924,24.409,48,29.039,48,38.987ZM5.823,9.558A5.479,5.479,0,0,0,0,15.153a5.446,5.446,0,0,0,5.687,5.6h.069a5.48,5.48,0,0,0,5.821-5.6A5.458,5.458,0,0,0,5.823,9.558Zm-5.212,48H10.9V25.17H.611Z" transform="translate(44 867.442)"/>
  </g>
</svg>
