<svg xmlns="http://www.w3.org/2000/svg" viewBox="0 0 54.585 55.642">
  <defs>
    <style>
      .cls-1 {
        fill: none;
      }

      .cls-2, .cls-3 {
        stroke: none;
      }

      .cls-3 {
        fill: #fdeb37;
      }
    </style>
  </defs>
  <g id="logo-fixed-pos" transform="translate(-20.599 -50.584)">
    <g id="Path_6" data-name="Path 6" class="cls-1" transform="translate(34.396 64.608) rotate(45)">
      <path class="cls-2" d="M0,0,19.173.338l.338,19.173L.338,19.173Z"/>
      <path class="cls-3" d="M 17.47548484802246 17.47548484802246 L 17.20781135559082 2.303915739059448 L 2.036241292953491 2.036241292953491 L 2.303915739059448 17.20781135559082 L 17.47548484802246 17.47548484802246 M 19.51172256469727 19.51172256469727 L 0.3382831811904907 19.17344284057617 L 3.189697281413828e-06 3.189697281413828e-06 L 19.17344284057617 0.3382831811904907 L 19.51172256469727 19.51172256469727 Z"/>
    </g>
    <g id="Path_5" data-name="Path 5" class="cls-1" transform="translate(47.85 78.632) rotate(45)">
      <path class="cls-2" d="M0,0,19.173.338l.338,19.173L.338,19.173Z"/>
      <path class="cls-3" d="M 17.47548484802246 17.47548484802246 L 17.20781135559082 2.303915739059448 L 2.036241292953491 2.036241292953491 L 2.303915739059448 17.20781135559082 L 17.47548484802246 17.47548484802246 M 19.51172256469727 19.51172256469727 L 0.3382831811904907 19.17344284057617 L 3.189697281413828e-06 3.189697281413828e-06 L 19.17344284057617 0.3382831811904907 L 19.51172256469727 19.51172256469727 Z"/>
    </g>
    <g id="Path_4" data-name="Path 4" class="cls-1" transform="translate(61.388 64.608) rotate(45)">
      <path class="cls-2" d="M0,0,19.173.338l.338,19.173L.338,19.173Z"/>
      <path class="cls-3" d="M 17.47548484802246 17.47548484802246 L 17.20781135559082 2.303915739059448 L 2.036241292953491 2.036241292953491 L 2.303915739059448 17.20781135559082 L 17.47548484802246 17.47548484802246 M 19.51172256469727 19.51172256469727 L 0.3382831811904907 19.17344284057617 L 3.189697281413828e-06 3.189697281413828e-06 L 19.17344284057617 0.3382831811904907 L 19.51172256469727 19.51172256469727 Z"/>
    </g>
    <g id="Path_3" data-name="Path 3" class="cls-1" transform="translate(47.934 50.584) rotate(45)">
      <path class="cls-2" d="M0,0,19.173.338l.338,19.173L.338,19.173Z"/>
      <path class="cls-3" d="M 17.47548484802246 17.47548484802246 L 17.20781135559082 2.303915739059448 L 2.036241292953491 2.036241292953491 L 2.303915739059448 17.20781135559082 L 17.47548484802246 17.47548484802246 M 19.51172256469727 19.51172256469727 L 0.3382831811904907 19.17344284057617 L 3.189697281413828e-06 3.189697281413828e-06 L 19.17344284057617 0.3382831811904907 L 19.51172256469727 19.51172256469727 Z"/>
    </g>
  </g>
</svg>
