<svg xmlns="http://www.w3.org/2000/svg" viewBox="0 0 54.585 55.642"><defs><style>.cls-1{fill:none}.cls-2,.cls-3{stroke:none}.cls-3{fill:#fdeb37}</style></defs><g id="logo" transform="translate(-20.599 -50.584)"><g id="Path_6" class="cls-1" data-name="Path 6"><path d="M0 0l19.173.338.338 19.173-19.173-.338z" class="cls-2" transform="rotate(45 -60.79 73.824)"/><path d="M17.475 17.475l-.267-15.171-15.172-.268.268 15.172 15.171.267m2.037 2.037L.338 19.173 0 0l19.173.338.339 19.174z" class="cls-3" transform="rotate(45 -60.79 73.824)"/></g><g id="Path_5" class="cls-1" data-name="Path 5"><path d="M0 0l19.173.338.338 19.173-19.173-.338z" class="cls-2" transform="rotate(45 -70.992 97.076)"/><path d="M17.475 17.475l-.267-15.171-15.172-.268.268 15.172 15.171.267m2.037 2.037L.338 19.173 0 0l19.173.338.339 19.174z" class="cls-3" transform="rotate(45 -70.992 97.076)"/></g><g id="Path_4" class="cls-1" data-name="Path 4"><path d="M0 0l19.173.338.338 19.173-19.173-.338z" class="cls-2" transform="rotate(45 -47.295 106.406)"/><path d="M17.475 17.475l-.267-15.171-15.172-.268.268 15.172 15.171.267m2.037 2.037L.338 19.173 0 0l19.173.338.339 19.174z" class="cls-3" transform="rotate(45 -47.295 106.406)"/></g><g id="Path_3" class="cls-1" data-name="Path 3"><path d="M0 0l19.173.338.338 19.173-19.173-.338z" class="cls-2" transform="rotate(45 -37.093 83.153)"/><path d="M17.475 17.475l-.267-15.171-15.172-.268.268 15.172 15.171.267m2.037 2.037L.338 19.173 0 0l19.173.338.339 19.174z" class="cls-3" transform="rotate(45 -37.093 83.153)"/></g></g></svg>