<svg xmlns="http://www.w3.org/2000/svg" viewBox="0 0 48 48">
  <defs>
    <style>
      .cls-1 {
        fill: #fdeb37;
      }
    </style>
  </defs>
  <g id="medium" transform="translate(-44 -985)">
    <path id="medium-2" data-name="medium" class="cls-1" d="M15.991,146.96V184.1a2.556,2.556,0,0,1-.335,1.346,1.075,1.075,0,0,1-.978.554,1.716,1.716,0,0,1-.884-.253L1.339,178.369a2.485,2.485,0,0,1-.951-1.061A3.163,3.163,0,0,1,0,175.836V139.741a2.045,2.045,0,0,1,.268-1.077.856.856,0,0,1,.777-.443,2.771,2.771,0,0,1,1.179.475L15.911,146.8A.273.273,0,0,1,15.991,146.96Zm1.714,3.2,14.3,27.42-14.3-8.422Zm30.295.57V184.1a2.055,2.055,0,0,1-.375,1.282,1.213,1.213,0,0,1-1.018.491,2.242,2.242,0,0,1-1.259-.412L33.536,178.5Zm-.08-3.8q0,.095-6.871,13.282T33,175.646L22.554,155.573l8.679-16.686A1.479,1.479,0,0,1,32.625,138a1.345,1.345,0,0,1,.7.19l14.491,8.549A.207.207,0,0,1,47.92,146.929Z" transform="translate(44 847)"/>
  </g>
</svg>
