<svg xmlns="http://www.w3.org/2000/svg" viewBox="0 0 35 48">
  <defs>
    <style>
      .cls-1 {
        fill: #fdeb37;
      }
    </style>
  </defs>
  <g id="resume-logo-fixed-pos" transform="translate(-53 -688)">
    <g id="Group_65" data-name="Group 65" transform="translate(53 688)">
      <g id="Group_64" data-name="Group 64" transform="translate(0)">
        <path id="Path_41" data-name="Path 41" class="cls-1" d="M98.766,7.434,91.609.235A.789.789,0,0,0,91.045,0H67.977A3.993,3.993,0,0,0,64,4V38.4a3.993,3.993,0,0,0,3.977,4h8.75V48h1.591V42.4H90.25a.8.8,0,0,0,.8-.8v-4a3.2,3.2,0,0,1,2.386-3.1V48h1.591V42.4A3.993,3.993,0,0,0,99,38.4V8A.8.8,0,0,0,98.766,7.434Zm-6.925-4.7L96.284,7.2H91.841ZM97.409,38.4a2.4,2.4,0,0,1-2.386,2.4V33.6a.8.8,0,0,0-.8-.8,4.791,4.791,0,0,0-4.773,4.8v3.2H67.977a2.4,2.4,0,0,1-2.386-2.4V4a2.4,2.4,0,0,1,2.386-2.4H90.25V8a.8.8,0,0,0,.8.8h6.364Z" transform="translate(-64)"/>
      </g>
    </g>
    <g id="Group_67" data-name="Group 67" transform="translate(56.977 692.8)">
      <g id="Group_66" data-name="Group 66" transform="translate(0)">
        <path id="Path_42" data-name="Path 42" class="cls-1" d="M115.932,48H104.8a.8.8,0,0,0-.8.8V60a.8.8,0,0,0,.8.8h11.136a.8.8,0,0,0,.8-.8V48.8A.8.8,0,0,0,115.932,48Zm-3.977,11.2h-3.182V57.6a1.591,1.591,0,1,1,3.182,0Zm-2.386-5.6a.8.8,0,1,1,.8.8A.8.8,0,0,1,109.568,53.6Zm5.568,5.6h-1.591V57.6a3.192,3.192,0,0,0-1.288-2.556,2.386,2.386,0,1,0-3.788,0,3.192,3.192,0,0,0-1.288,2.556v1.6h-1.591V49.6h9.545Z" transform="translate(-104 -48)"/>
      </g>
    </g>
    <g id="Group_69" data-name="Group 69" transform="translate(71.295 695.2)">
      <g id="Group_68" data-name="Group 68">
        <rect id="Rectangle_17" data-name="Rectangle 17" class="cls-1" width="3.977" height="1.6"/>
      </g>
    </g>
    <g id="Group_71" data-name="Group 71" transform="translate(71.295 698.4)">
      <g id="Group_70" data-name="Group 70">
        <rect id="Rectangle_18" data-name="Rectangle 18" class="cls-1" width="4.773" height="1.6"/>
      </g>
    </g>
    <g id="Group_73" data-name="Group 73" transform="translate(77.659 698.4)">
      <g id="Group_72" data-name="Group 72" transform="translate(0)">
        <rect id="Rectangle_19" data-name="Rectangle 19" class="cls-1" width="3.977" height="1.6"/>
      </g>
    </g>
    <g id="Group_75" data-name="Group 75" transform="translate(71.295 701.6)">
      <g id="Group_74" data-name="Group 74">
        <rect id="Rectangle_20" data-name="Rectangle 20" class="cls-1" width="10.341" height="1.6"/>
      </g>
    </g>
    <g id="Group_77" data-name="Group 77" transform="translate(60.955 708)">
      <g id="Group_76" data-name="Group 76" transform="translate(0)">
        <rect id="Rectangle_21" data-name="Rectangle 21" class="cls-1" width="6.364" height="1.6"/>
      </g>
    </g>
    <g id="Group_79" data-name="Group 79" transform="translate(68.909 708)">
      <g id="Group_78" data-name="Group 78" transform="translate(0)">
        <rect id="Rectangle_22" data-name="Rectangle 22" class="cls-1" width="4.773" height="1.6"/>
      </g>
    </g>
    <g id="Group_81" data-name="Group 81" transform="translate(75.273 708)">
      <g id="Group_80" data-name="Group 80" transform="translate(0)">
        <rect id="Rectangle_23" data-name="Rectangle 23" class="cls-1" width="7.955" height="1.6"/>
      </g>
    </g>
    <g id="Group_83" data-name="Group 83" transform="translate(57.773 711.2)">
      <g id="Group_82" data-name="Group 82" transform="translate(0)">
        <rect id="Rectangle_24" data-name="Rectangle 24" class="cls-1" width="6.364" height="1.6"/>
      </g>
    </g>
    <g id="Group_85" data-name="Group 85" transform="translate(65.727 711.2)">
      <g id="Group_84" data-name="Group 84" transform="translate(0)">
        <rect id="Rectangle_25" data-name="Rectangle 25" class="cls-1" width="12.727" height="1.6"/>
      </g>
    </g>
    <g id="Group_87" data-name="Group 87" transform="translate(80.045 711.2)">
      <g id="Group_86" data-name="Group 86">
        <rect id="Rectangle_26" data-name="Rectangle 26" class="cls-1" width="3.182" height="1.6"/>
      </g>
    </g>
    <g id="Group_89" data-name="Group 89" transform="translate(57.773 714.4)">
      <g id="Group_88" data-name="Group 88" transform="translate(0)">
        <rect id="Rectangle_27" data-name="Rectangle 27" class="cls-1" width="3.182" height="1.6"/>
      </g>
    </g>
    <g id="Group_93" data-name="Group 93" transform="translate(73.682 714.4)">
      <g id="Group_92" data-name="Group 92" transform="translate(0)">
        <rect id="Rectangle_29" data-name="Rectangle 29" class="cls-1" width="9.545" height="1.6"/>
      </g>
    </g>
    <g id="Group_95" data-name="Group 95" transform="translate(57.773 717.6)">
      <g id="Group_94" data-name="Group 94" transform="translate(0)">
        <rect id="Rectangle_30" data-name="Rectangle 30" class="cls-1" width="3.182" height="1.6"/>
      </g>
    </g>
    <g id="Group_97" data-name="Group 97" transform="translate(62.545 717.6)">
      <g id="Group_96" data-name="Group 96" transform="translate(0)">
        <rect id="Rectangle_31" data-name="Rectangle 31" class="cls-1" width="9.545" height="1.6"/>
      </g>
    </g>
    <g id="Group_99" data-name="Group 99" transform="translate(73.682 717.6)">
      <g id="Group_98" data-name="Group 98" transform="translate(0)">
        <rect id="Rectangle_32" data-name="Rectangle 32" class="cls-1" width="9.545" height="1.6"/>
      </g>
    </g>
    <g id="Group_101" data-name="Group 101" transform="translate(57.773 720.8)">
      <g id="Group_100" data-name="Group 100" transform="translate(0)">
        <rect id="Rectangle_33" data-name="Rectangle 33" class="cls-1" width="7.159" height="1.6"/>
      </g>
    </g>
    <g id="Group_103" data-name="Group 103" transform="translate(66.523 720.8)">
      <g id="Group_102" data-name="Group 102" transform="translate(0)">
        <rect id="Rectangle_34" data-name="Rectangle 34" class="cls-1" width="11.136" height="1.6"/>
      </g>
    </g>
    <g id="Group_105" data-name="Group 105" transform="translate(57.773 724)">
      <g id="Group_104" data-name="Group 104" transform="translate(0)">
        <rect id="Rectangle_35" data-name="Rectangle 35" class="cls-1" width="3.182" height="1.6"/>
      </g>
    </g>
    <g id="Group_107" data-name="Group 107" transform="translate(62.545 724)">
      <g id="Group_106" data-name="Group 106" transform="translate(0)">
        <rect id="Rectangle_36" data-name="Rectangle 36" class="cls-1" width="13.523" height="1.6"/>
      </g>
    </g>
  </g>
</svg>
