<svg xmlns="http://www.w3.org/2000/svg" viewBox="0 0 73.515 75.79">
  <defs>
    <style>
      .cls-1 {
        fill: #d2a077;
      }

      .cls-2 {
        fill: #f3d2a2;
      }

      .cls-3 {
        fill: #77b255;
      }
    </style>
  </defs>
  <g id="waving-hand" transform="translate(0)">
    <g id="Symbol_18_1" data-name="Symbol 18 – 1">
      <g id="Group_6" data-name="Group 6">
        <path id="Path_11" data-name="Path 11" class="cls-1" d="M56.178,2.118a5.541,5.541,0,0,1,6.544.35L60.741-.5a4.472,4.472,0,0,1,1.253-6.517,4.937,4.937,0,0,1,7,1.273L87.05,20.777l.143-.065L70.708-4.252a4.972,4.972,0,0,1,.99-7.021,4.98,4.98,0,0,1,7.066,1.288l21.3,31.025a5.364,5.364,0,0,1-1.474,7.265,4.908,4.908,0,0,1-1.241.63V48.177H76.907V41.616a29.012,29.012,0,0,1-2.214-1.958L54.929,9.448a5.363,5.363,0,0,1,1.249-7.331" transform="translate(-46.24 17.075)"/>
        <path id="Path_12" data-name="Path 12" class="cls-2" d="M33.726,9.76S31.412,6.283,34.787,3.9s5.684,1.094,5.684,1.094L51.206,21.133a21.305,21.305,0,0,1,1.225-1.882l-14.9-22.4s-2.312-3.476,1.061-5.859,5.684,1.092,5.684,1.092L58.292,13.15c.521-.441,1.053-.879,1.6-1.311L43.65-12.589s-2.312-3.476,1.059-5.859,5.684,1.092,5.684,1.092L66.642,7.069c.6-.377,1.188-.706,1.779-1.05L53.236-16.811s-2.312-3.476,1.061-5.859,5.684,1.092,5.684,1.092L76.038,2.563,77.324,4.5l1.155,1.739c-10.116,7.151-11.079,20.611-5.3,29.3a1.965,1.965,0,0,0,2.844.548c-6.939-10.431-4.819-22.152,5.3-29.3L78.334-8.61s-1.114-4.057,2.819-5.206S86.2-10.91,86.2-10.91L89.646-.363A95.23,95.23,0,0,0,94.39,11.925a25.771,25.771,0,0,1-8.057,32.2,24.079,24.079,0,0,1-34.108-6.555c-.4-.611-.744-1.208-1.067-1.8l-.09.065Z" transform="translate(-28.216 26.692)"/>
        <g id="Group_5" data-name="Group 5">
          <path id="Path_13" data-name="Path 13" class="cls-3" d="M48.384,300.585c-8.178,0-16.442-8.519-16.442-16.95a2.005,2.005,0,0,0-1.959-2.108,2.148,2.148,0,0,0-2.13,2.108c0,12.646,8.264,21.165,20.531,21.165a2.154,2.154,0,0,0,2.045-2.2,2,2,0,0,0-2.045-2.019" transform="translate(-23.851 -233.137)"/>
          <path id="Path_14" data-name="Path 14" class="cls-3" d="M14.318,365.285c-6.133,0-10.222-4.215-10.222-10.538a2.075,2.075,0,0,0-2.045-2.108,2.075,2.075,0,0,0-2.045,2.108c0,8.431,6.133,14.754,14.311,14.754a2.109,2.109,0,0,0,0-4.215" transform="translate(-0.006 -293.71)"/>
          <path id="Path_15" data-name="Path 15" class="cls-3" d="M329.162-17.139a2.078,2.078,0,0,0-2.045,2.108,2.078,2.078,0,0,0,2.045,2.108c8.178,0,16.356,7.565,16.356,16.861a2.045,2.045,0,1,0,4.089,0c0-11.622-8.178-21.077-20.445-21.077" transform="translate(-280.095 21.268)"/>
          <path id="Path_16" data-name="Path 16" class="cls-3" d="M400.273-45a2,2,0,0,0-2.044,2.019,2.155,2.155,0,0,0,2.044,2.2c6.133,0,10.137,4.69,10.137,10.45a2.149,2.149,0,0,0,2.13,2.108,2.006,2.006,0,0,0,1.959-2.108C414.5-38.42,408.451-45,400.273-45" transform="translate(-340.984 45)"/>
        </g>
      </g>
    </g>
  </g>
</svg>
